<svg width="1215" height="766" viewBox="0 0 1215 766" fill="none" xmlns="http://www.w3.org/2000/svg">
<path d="M915.302 226.416C839.824 220.871 751.908 232.453 680.144 322.337C632.416 382.115 594.029 416.001 504.761 422.026C415.493 428.051 392.087 392.592 289.975 399.653C187.863 406.713 47.01 507.494 15.6826 761.799L1206.14 761.799L1206.14 3.62764C1149.23 155.833 1123.69 241.726 915.302 226.416Z" fill="white"/>
<path d="M680.144 319.337L682.429 321.162L682.429 321.162L680.144 319.337ZM915.302 223.416L915.087 226.333L915.302 223.416ZM1206.14 0.627644L1180.1 22.1289L1211.74 33.9337L1206.14 0.627644ZM15.6826 758.799L36.486 732.193L3.04334 727.48L15.6826 758.799ZM682.429 321.162C753.364 232.317 840.14 220.827 915.087 226.333L915.516 220.499C839.508 214.915 750.452 226.589 677.858 317.512L682.429 321.162ZM915.087 226.333C1013.84 233.588 1072.43 218.256 1112.7 183.259C1152.78 148.433 1174.2 94.5072 1199.69 26.2979L1194.21 24.2501C1168.59 92.794 1147.62 145.171 1108.87 178.843C1070.31 212.345 1013.63 227.707 915.516 220.499L915.087 226.333ZM504.958 421.944C549.956 418.907 582.362 408.827 609.58 391.819C636.74 374.848 658.521 351.106 682.429 321.162L677.858 317.512C654.038 347.346 632.763 370.436 606.48 386.858C580.256 403.245 548.835 413.12 504.564 416.108L504.958 421.944ZM504.564 416.108C460.414 419.087 432.625 411.832 402.874 404.609C372.979 397.35 341.264 390.175 289.773 393.735L290.177 399.571C340.798 396.07 371.841 403.094 401.494 410.293C431.292 417.528 459.84 424.989 504.958 421.944L504.564 416.108ZM289.773 393.735C189.516 400.667 54.0625 496.148 16.4694 732.263L22.2464 733.182C59.5329 498.994 193.34 406.266 290.177 399.571L289.773 393.735Z" fill="url(#paint0_linear)"/>
<defs>
<linearGradient id="paint0_linear" x1="66.4628" y1="634.015" x2="1133.63" y2="293.734" gradientUnits="userSpaceOnUse">
<stop stop-color="#4484FC" stop-opacity="0"/>
<stop offset="0.0572917" stop-color="#4484FC"/>
<stop offset="0.807292" stop-color="#58F3C9"/>
</linearGradient>
</defs>
</svg>
