<svg width="145" height="132" viewBox="0 0 145 132" fill="none" xmlns="http://www.w3.org/2000/svg">
<g clip-path="url(#clip0)">
<path d="M112.807 119.053C114.965 119.053 116.488 120.359 116.567 122.125H115.542C115.412 120.831 114.313 120.007 112.779 120.007C111.159 120.007 110.043 120.921 110.043 122.171C110.043 123.397 111.227 123.97 112.354 124.288L113.577 124.64C115.05 125.055 116.726 125.827 116.726 127.757C116.726 129.62 115.219 131.045 112.705 131.045C110.338 131.045 108.843 129.779 108.718 127.939H109.806C109.919 129.319 111.142 130.074 112.705 130.074C114.438 130.074 115.701 129.137 115.701 127.74C115.701 126.554 114.715 126.014 113.277 125.594L111.89 125.185C110.072 124.646 109.018 123.709 109.018 122.216C109.018 120.342 110.666 119.053 112.807 119.053ZM127.786 119.059C130.323 119.059 132.062 120.802 132.436 122.852H131.348C130.929 121.308 129.7 120.058 127.786 120.058C125.527 120.058 123.828 121.898 123.828 125.032C123.828 128.155 125.515 130.006 127.86 130.006C129.967 130.006 131.456 128.547 131.484 126.168H128.109V125.214H132.515V126.168C132.515 129.149 130.572 131.005 127.86 131.005C124.824 131.005 122.803 128.672 122.803 125.032C122.803 121.387 124.847 119.059 127.786 119.059ZM5.53532 119.059C8.21958 119.059 10.2469 120.603 10.5697 123.289H8.08933C7.90245 122.012 6.93408 121.234 5.59195 121.234C3.79678 121.234 2.61887 122.613 2.61887 125.032C2.61887 127.519 3.81376 128.831 5.57496 128.831C6.88311 128.831 7.85715 128.115 8.08933 126.872L10.5697 126.883C10.3036 129.024 8.5084 131.005 5.53532 131.005C2.43199 131.005 0.132812 128.825 0.132812 125.032C0.132812 121.228 2.47163 119.059 5.53532 119.059ZM14.7352 119.218V124.016H19.713V119.218H22.1594V130.846H19.713V126.043H14.7352V130.846H12.2831V119.218H14.7352ZM120.291 119.218V130.846H119.232V119.218H120.291ZM106.558 119.218V120.172H100.889V124.55H106.201V125.503H100.889V129.892H106.671V130.846H99.8299V119.218H106.558ZM92.0401 119.218C95.3587 119.218 97.3181 121.387 97.3181 125.004C97.3124 128.66 95.3247 130.846 91.8363 130.846H88.4385V119.218H92.0401ZM80.5015 119.218C84.0012 119.218 86.1418 121.398 86.1418 125.021C86.1418 128.655 84.0012 130.846 80.4675 130.846H76.3562V119.218H80.5015ZM74.3823 119.218V130.846H71.9302V119.218H74.3823ZM136.125 119.218L143 128.967H143.091V119.218H144.133V130.846H143.102L136.25 121.109H136.159V130.846H135.1V119.218H136.125ZM63.4326 119.218V124.345H63.5855L67.7591 119.218H70.6982L66.3943 124.425L70.7492 130.846H67.8157L64.6388 126.066L63.4326 127.542V130.846H60.9805V119.218H63.4326ZM55.2747 119.218C57.908 119.218 59.4314 120.848 59.4314 123.158C59.4314 125.481 57.8797 127.076 55.2124 127.076H53.1511V130.846H50.699V119.218H55.2747ZM39.0357 119.218L42.2297 127.031H42.3656L45.5595 119.218H48.5836V130.846H46.2051V123.278H46.1088L43.1074 130.789H41.4878L38.4864 123.249H38.3902V130.846H36.0117V119.218H39.0357ZM30.6683 119.218L34.6664 130.846H32.0388L31.178 128.195H26.9931L26.1323 130.846H23.5046L27.5084 119.218H30.6683ZM91.9779 120.172H89.4975V129.892H91.774C94.7641 129.892 96.2931 128.041 96.2931 125.004C96.2874 121.995 94.7924 120.172 91.9779 120.172ZM80.3712 121.325H78.8082V128.74H80.3656C82.5458 128.74 83.6954 127.616 83.6954 125.021C83.6954 122.437 82.5458 121.325 80.3712 121.325ZM29.1337 121.875H29.0431L27.616 126.276H30.5607L29.1337 121.875ZM54.8047 121.228H53.1511V125.106H54.816C56.2204 125.106 56.9057 124.311 56.9057 123.158C56.9057 122 56.2204 121.228 54.8047 121.228ZM59.0271 68.5092C60.5148 68.2191 60.7763 69.626 60.1914 70.2014C59.2838 71.0947 57.1564 73.1808 56.6068 73.6555C53.4217 76.4095 53.8245 81.2249 57.4027 83.5118C61.3477 86.0334 66.0499 87.5778 71.1141 87.7671C71.4708 87.7804 71.8319 87.7871 72.1876 87.7871C79.523 87.7871 86.3456 85.01 91.3984 79.9675C93.335 78.034 96.0581 76.925 98.869 76.925C103.026 76.925 106.634 79.1562 108.282 82.7481C109.931 86.3409 109.183 90.3425 106.332 93.1909C101.993 97.5256 96.8681 100.938 91.1016 103.332C85.1284 105.811 78.7648 107.069 72.1876 107.069C61.7078 107.069 51.7882 103.781 43.5658 97.9059C40.0508 95.3945 36.3259 91.3444 40.2972 87.3162C44.5161 82.9115 57.0507 69.9959 57.5625 69.5415C57.9731 69.1773 58.4674 68.5969 59.0271 68.5092ZM112.661 1.71638C112.723 2.26175 112.539 2.80517 112.158 3.20473C108.741 6.78193 91.6578 24.6699 84.7362 31.9466C79.8637 36.6589 76.6183 36.5973 73.4982 36.4922C73.0994 36.4743 72.6986 36.4655 72.2961 36.4655C70.6015 36.4655 68.9337 36.6289 67.3079 36.9404C66.9742 37.0213 66.6378 37.0934 66.2987 37.1576C61.5515 38.264 57.2078 40.6791 53.7063 44.2347C48.776 49.2413 44.1319 58.9708 46.3713 62.808C48.6105 66.6455 52.482 63.5409 53.6822 62.642C56.5181 60.5173 58.6003 57.7167 60.4617 54.7397C61.0119 53.8596 62.0409 52.6697 62.5111 52.3514C62.981 52.0327 63.3558 51.9769 63.8052 51.9172C64.2648 51.9345 64.7446 52.2232 64.7496 52.932C64.7542 53.6408 64.3735 54.2426 63.9592 54.7093C62.9097 55.8914 48.1766 71.7981 39.7253 80.8943C33.6699 87.4117 31.2401 82.8615 30.2031 80.5645C27.7026 75.028 26.3405 69.0002 26.2447 62.7695C26.0576 50.635 30.7626 39.1105 39.493 30.319C48.2179 21.5327 59.7882 16.6625 72.072 16.6045L72.2964 16.6038C78.7577 16.6038 85.1945 17.9607 91.0626 20.5418C91.6069 20.7815 92.2416 20.6794 92.6679 20.2681C94.2544 18.739 98.1164 14.9899 100.176 12.7699C104.236 8.39261 108.158 1.08327 110.024 0.20161C111.154 -0.302336 112.522 0.464184 112.661 1.71638ZM64.5484 64.9614C64.8259 64.9961 65.0358 65.1474 65.0459 65.5077C65.0664 66.2346 64.0926 67.0172 63.4293 66.5985C62.9406 65.983 63.762 64.9452 64.5484 64.9614ZM118.228 12.5602C119.015 12.0203 119.674 12.4637 119.727 13.3945C119.783 14.3768 118.554 15.6916 118.554 15.6916C118.554 15.6916 110.035 24.117 106.463 27.7336C105.453 28.7562 105.457 30.3519 106.461 31.38C107.663 32.6092 108.793 33.9024 109.841 35.254C112.153 38.2355 112.507 42.1563 110.763 45.4875C109.008 48.8417 105.491 50.9253 101.586 50.9253C98.3656 50.9253 95.3006 49.4542 93.3871 46.9909C91.4093 44.8411 90.0516 43.4304 90.0516 43.4304C89.9121 43.285 85.6566 38.7778 89.7538 34.5469C95.4174 28.6981 103.822 19.6695 105.155 18.2895C105.45 17.9837 105.824 17.7125 106.216 17.5424C106.446 17.4426 106.859 17.4229 107.044 17.6302C107.228 17.8371 107.103 18.3063 107.045 18.4167C106.436 20.2033 100.433 23.3575 102.294 25.8644C103.129 26.989 105.661 25.2384 106.576 24.5635C110.421 21.7263 113.536 18.2194 116.361 14.4565C116.888 13.7542 117.503 13.0571 118.228 12.5602ZM72.1027 44.5691C72.0619 43.1151 74.0095 41.5495 75.336 42.3875C76.3134 43.6184 74.6702 45.6937 73.0976 45.6614C72.543 45.5921 72.1229 45.2895 72.1027 44.5691ZM109.145 13.5344C109.125 12.8077 110.099 12.0249 110.762 12.4436C111.251 13.0593 110.429 14.0969 109.643 14.0807C109.366 14.0461 109.156 13.8948 109.145 13.5344Z" fill="#EBEBEB"/>
</g>
<defs>
<clipPath id="clip0">
<rect x="0.132812" y="0.0449219" width="144" height="131" fill="white"/>
</clipPath>
</defs>
</svg>
