<svg width="53" height="60" viewBox="0 0 53 60" fill="none" xmlns="http://www.w3.org/2000/svg">
<path d="M19.152 38.3498C19.9816 38.1874 20.1274 38.9751 19.8013 39.2973C19.2952 39.7974 18.1089 40.9655 17.8025 41.2312C16.0264 42.7732 16.251 45.4694 18.2463 46.7498C20.446 48.1617 23.068 49.0263 25.8919 49.1324C26.0908 49.1398 26.2922 49.1435 26.4905 49.1435C30.5808 49.1435 34.3851 47.5886 37.2026 44.7653C38.2825 43.6827 39.801 43.0618 41.3684 43.0618C43.6866 43.0618 45.6979 44.3111 46.617 46.3222C47.5365 48.3338 47.1197 50.5743 45.5298 52.1691C43.1101 54.5962 40.2526 56.5066 37.0371 57.8471C33.7064 59.2354 30.158 59.9396 26.4905 59.9396C20.6468 59.9396 15.1156 58.0987 10.5306 54.8091C8.57068 53.403 6.49363 51.1353 8.70804 48.8799C11.0606 46.4137 18.05 39.1822 18.3354 38.9278C18.5643 38.7239 18.84 38.3989 19.152 38.3498ZM49.0592 0.952276C49.0933 1.25763 48.9908 1.56189 48.7782 1.78561C46.8731 3.78849 37.3473 13.804 33.4877 17.8783C30.7708 20.5167 28.9611 20.4822 27.2213 20.4234C26.9989 20.4133 26.7754 20.4084 26.551 20.4084C25.6061 20.4084 24.6761 20.4999 23.7695 20.6743C23.5834 20.7196 23.3959 20.76 23.2068 20.796C20.5597 21.4154 18.1376 22.7676 16.1851 24.7584C13.4359 27.5616 10.8463 33.0092 12.0951 35.1577C13.3436 37.3063 15.5024 35.568 16.1717 35.0647C17.753 33.8751 18.914 32.307 19.952 30.6402C20.2588 30.1474 20.8326 29.4812 21.0948 29.303C21.3568 29.1245 21.5658 29.0933 21.8164 29.0599C22.0727 29.0696 22.3402 29.2312 22.343 29.628C22.3456 30.0249 22.1333 30.3619 21.9022 30.6232C21.317 31.285 13.1017 40.1913 8.38917 45.2842C5.01257 48.9333 3.65769 46.3857 3.07947 45.0996C1.68516 41.9997 0.925632 38.6247 0.872196 35.1361C0.767903 28.342 3.39143 21.8894 8.25963 16.967C13.1247 12.0475 19.5765 9.32068 26.4261 9.28817L26.5512 9.2878C30.154 9.2878 33.7433 10.0475 37.0154 11.4927C37.3189 11.6269 37.6729 11.5697 37.9106 11.3395C38.7952 10.4833 40.9487 8.38416 42.097 7.14119C44.361 4.69031 46.5482 0.597793 47.5884 0.104148C48.2184 -0.178012 48.9814 0.251165 49.0592 0.952276ZM22.2308 36.3634C22.3855 36.3828 22.5026 36.4675 22.5082 36.6693C22.5196 37.0762 21.9766 37.5144 21.6068 37.28C21.3342 36.9354 21.7923 36.3543 22.2308 36.3634ZM52.1629 7.02377C52.6018 6.7215 52.9695 6.96971 52.999 7.49092C53.0301 8.04087 52.3447 8.77703 52.3447 8.77703C52.3447 8.77703 47.5945 13.4944 45.6026 15.5194C45.0394 16.092 45.0418 16.9854 45.6019 17.561C46.2719 18.2493 46.9021 18.9733 47.4866 19.7301C48.7759 21.3994 48.9731 23.5947 48.0009 25.4599C47.0218 27.3379 45.061 28.5045 42.8834 28.5045C41.0877 28.5045 39.3786 27.6808 38.3116 26.3016C37.2087 25.098 36.4517 24.3081 36.4517 24.3081C36.3739 24.2267 34.001 21.7031 36.2856 19.3342C39.4437 16.0594 44.1302 11.0043 44.8733 10.2316C45.0379 10.0604 45.2465 9.90856 45.4653 9.81329C45.5934 9.75742 45.8239 9.7464 45.9267 9.86246C46.0293 9.97834 45.9597 10.241 45.9276 10.3029C45.5876 11.3031 42.2404 13.0692 43.2784 14.4728C43.744 15.1025 45.1559 14.1223 45.6661 13.7445C47.8097 12.1559 49.5469 10.1924 51.1222 8.08552C51.416 7.69231 51.7588 7.302 52.1629 7.02377ZM26.4432 24.9456C26.4204 24.1315 27.5064 23.255 28.2461 23.7241C28.7911 24.4134 27.8748 25.5753 26.9979 25.5572C26.6887 25.5184 26.4544 25.349 26.4432 24.9456ZM47.0986 7.5692C47.0874 7.16233 47.6303 6.72404 48 6.95848C48.2726 7.30321 47.8144 7.88417 47.376 7.87509C47.2215 7.85573 47.1043 7.77102 47.0986 7.5692Z" fill="#242424"/>
</svg>
